<svg id="visual" viewBox="0 0 960 540" width="960" height="540" xmlns="http://www.w3.org/2000/svg" xmlns:xlink="http://www.w3.org/1999/xlink" version="1.1"><rect x="0" y="0" width="960" height="540" fill="#F3DAA6"></rect><defs><linearGradient id="grad1_0" x1="43.8%" y1="0%" x2="100%" y2="100%"><stop offset="14.444444444444446%" stop-color="#f3daa6" stop-opacity="1"></stop><stop offset="85.55555555555554%" stop-color="#f3daa6" stop-opacity="1"></stop></linearGradient></defs><defs><linearGradient id="grad2_0" x1="0%" y1="0%" x2="56.3%" y2="100%"><stop offset="14.444444444444446%" stop-color="#f3daa6" stop-opacity="1"></stop><stop offset="85.55555555555554%" stop-color="#f3daa6" stop-opacity="1"></stop></linearGradient></defs><g transform="translate(960, 0)"><path d="M0 486C-54.6 459.8 -109.2 433.5 -171.8 414.8C-234.5 396.1 -305.2 385 -343.7 343.7C-382.1 302.3 -388.2 230.7 -406.5 168.4C-424.8 106.1 -455.4 53 -486 0L0 0Z" fill="#FBAE3C"></path></g><g transform="translate(0, 540)"><path d="M0 -486C71.8 -487.2 143.6 -488.4 186 -449C228.4 -409.6 241.5 -329.7 282.1 -282.1C322.8 -234.6 391 -219.6 429.6 -177.9C468.2 -136.3 477.1 -68.2 486 0L0 0Z" fill="#FBAE3C"></path></g></svg>