<?xml version="1.0" encoding="UTF-8"?>
<svg version="1.1" viewBox="0 0 642.71862 454.28299" xmlns="http://www.w3.org/2000/svg">
 <defs>
  <filter id="c" x="-.5" y="-.5" width="2" height="2" color-interpolation-filters="sRGB">
   <feGaussianBlur result="result1" stdDeviation="0.01"/>
   <feBlend in2="result1" mode="multiply" result="fbSourceGraphic"/>
   <feTurbulence baseFrequency="0.8" numOctaves="3" result="result3" type="fractalNoise"/>
   <feDisplacementMap in="fbSourceGraphic" in2="result3" result="result2" scale="50" xChannelSelector="R" yChannelSelector="G"/>
   <feMorphology operator="dilate" radius="1" result="result4"/>
   <feBlend in2="result2" mode="screen"/>
  </filter>
  <filter id="d" x="-.5" y="-.5" width="2" height="2" color-interpolation-filters="sRGB">
   <feGaussianBlur result="result1" stdDeviation="0.01"/>
   <feBlend in2="result1" mode="multiply" result="fbSourceGraphic"/>
   <feTurbulence baseFrequency="0.8" numOctaves="3" result="result3" type="fractalNoise"/>
   <feDisplacementMap in="fbSourceGraphic" in2="result3" result="result2" scale="50" xChannelSelector="R" yChannelSelector="G"/>
   <feMorphology operator="dilate" radius="1" result="result4"/>
   <feBlend in2="result2" mode="screen"/>
  </filter>
 </defs>
 <g transform="matrix(1.1432 0 0 1.1432 -32.342 -182.06)">
  <g transform="matrix(.38469 .048696 -.048696 .38469 178.96 197.46)">
   <path d="m-45.166-93.586c-27.77 17.545-4.627 28.355 0 32.997 9.1028 9.1322 9.2478 39.274 23.92 53.994 14.799 14.846 45.782 25.867 56.81 47.995 3.1399 6.3001-2.2301 17.285 0 23.997 4.3646 13.136 38.032 49.409 46.08 57.483 10.021 10.053 20.454 27.264 28.67 35.507 7.1828 7.206 27.583 29.325 29.9 20.998 5.7738-20.747-45.405-47.605 11.96 2.5316 11.805 10.317 30.187-5.1446 30.252-5.2761 22.129-44.401 22.309 22.006 41.508 2.7445 29.305-29.4 80.507 16.918 58.218-33.231 0 0 26.649-2.6335 27.966-5.2761 6.9269-13.899 47.917-27.261 36.406-21.487" fill="#fc0"/>
   <path d="m-25.677-51.335c-2.7331 21.741 35.725 28.368 39.412 35.439 3.0662 5.8819 6.8249 14.274 11.085 22.445 3.2238 6.1842 14.626 6.8665 19.706 14.176 7.05 10.143 17.951 21.943 25.864 29.533 10.894 10.449-7.7412 29.955 35.717 50.796 4.1755 2.0025 3.2786 9.8415 9.8529 12.994 3.5332 1.6945 10.664 1.9592 13.548 4.7252 1.3499 1.2947 5.1906 24.681 2.4632 25.989-1.8042 0.86525-16.844 0.38234-17.243 0-7.0477-6.7598-49.265-46.129-49.265-51.978 0-5.8668-1.2619-7.1169-4.9265-10.632-4.3107-4.1346 4.3107-20.673 0-24.807-4.435-4.258-11.135-17.773-12.312-18.901-11.024-10.574-25.262-22.454-38.18-30.714-8.7908-5.6215-14.232-16.013-20.937-22.445-6.2543-5.9988-17.278-9.5009-22.169-16.538-4.469-6.4296 3.7896-16.629 7.3897-20.082 1.8588-1.7829 8.0169-2.9424 6.1581-4.7252-0.57758-0.55399-4.0888-1.5592-4.9265-2.3626" fill="#fff"/>
   <g transform="matrix(.39891 .51506 -1 .083307 160.48 -570.57)">
    <path d="m1100.9-203.98-257.97 758.92h509.95l-73.125-220.25a26.997 32.997 0 0 1 -16.865 7.2695 26.997 32.997 0 0 1 -26.998 -32.996 26.997 32.997 0 0 1 11.822 -27.25 26.997 32.997 0 0 1 -23.82 -32.744 26.997 32.997 0 0 1 11.773 -27.207 26.997 32.997 0 0 1 -2.7754 0.21094 26.997 32.997 0 0 1 -26.996 -32.996 26.997 32.997 0 0 1 15.568 -29.852l-120.56-363.11z" fill="#fc0"/>
    <path d="m1097.9-149.98c3.5291 33.162-13.74 28.738-29.997 44.995-13.556 13.556 17.259 39.735 5.9994 50.995-29.69 29.69-6.6526 45.649-41.996 80.991-3.4353 3.4353 14.03 73.977 5.9993 77.992-6.4796 3.2398-3.0194 10.509-5.9993 11.999-37.17 18.585-20.246 74.24-65.993 119.99-12.787 12.787-0.36524 51.36-11.999 62.993-13.85 13.85 1.8753 36.37-2.9997 50.995-2.1484 6.4451-8.1013 8.1013-11.999 11.999-19.495 19.495 20.346 38.996-11.999 38.996-35.634 0-20.998 58.473-20.998 83.991 0 7.3943-24.548 35.446-23.997 35.996 7.5878 7.5878 70.401 10.764 80.991 8.999 4.9891-0.83152 48.081-24.083 53.994-29.997 0.5616-0.56153 56.818 11.999 62.993 11.999 14.831 0-7.5263-1.4728 0-8.999 3.8542-3.8542 11.506 5.6819 14.998 5.9994 10.008 0.90977 19.989 2.0899 29.997 2.9997 0.5982 0.0544 8.9991-0.0435 8.9991 0 0 8.5477 15.374 11.124 26.997 14.998 40.053 13.351 37.816-47.995 74.992-47.995 2.2183 0 26.099 1.7955 26.997 0 5.9845-11.969 33.549-57.666 23.997-71.992-12.318-18.477-46.966-61.965-59.994-74.992-19.22-19.22 5.9994-47.153 5.9994-47.995 0-9.5689-26.997-6.8966-26.997-23.997 0-11.815 4.5897-21.178 8.9991-29.997 0.8943-1.7887 7.9991 0 5.9993 0-6.5455 0-43.468-12.054-35.996-26.997 6.0081-12.016 21.554-62.437 17.998-65.993-14.496-14.496-26.418-29.418-35.996-38.996-10.999-10.999 10.999-54.994 0-65.993-12.984-12.984-17.803-32.802-29.997-44.995-12.499-12.499 12.499-62.493 0-74.992-13.81-13.81-33.1-39.409-38.996-62.993z" fill="#ffe680" stroke="#f60" stroke-width="1px"/>
    <ellipse cx="1085.9" cy="65.993" rx="50.995" ry="56.994" d="m 1136.895,65.992996 c 0,31.476917 -22.8312,56.994004 -50.995,56.994004 -28.1637,0 -50.995,-25.517087 -50.995,-56.994004 0,-31.476917 22.8313,-56.9939993 50.995,-56.9939993 28.1638,0 50.995,25.5170823 50.995,56.9939993 z" fill="#f00" stroke="#f60" stroke-linecap="round" stroke-width="10"/>
    <ellipse cx="1159.4" cy="433.45" rx="61.493" ry="64.493" d="m 1220.893,433.45001 c 0,35.6185 -27.5313,64.493 -61.493,64.493 -33.9616,0 -61.493,-28.8745 -61.493,-64.493 0,-35.6185 27.5314,-64.49299 61.493,-64.49299 33.9617,0 61.493,28.87449 61.493,64.49299 z" fill="#f00" stroke="#d45500" stroke-linecap="round" stroke-width="10"/>
    <g transform="matrix(.89383 .44841 -.44841 .89383 290.54 -470.46)">
     <ellipse cx="1003.4" cy="343.46" rx="64.493" ry="76.492" d="m 1067.893,343.45999 c 0,42.24536 -28.8745,76.492 -64.493,76.492 -35.61847,0 -64.49297,-34.24664 -64.49297,-76.492 0,-42.24536 28.8745,-76.492 64.49297,-76.492 35.6185,0 64.493,34.24664 64.493,76.492 z" fill="#f00" stroke="#d45500" stroke-linecap="round" stroke-width="10"/>
     <ellipse cx="1001.7" cy="298.5" rx="6.6309" ry="10.535" d="m 1008.3309,298.5 c 0,5.81832 -2.9687,10.535 -6.6309,10.535 -3.66213,0 -6.63089,-4.71668 -6.63089,-10.535 0,-5.81832 2.96876,-10.535 6.63089,-10.535 3.6622,0 6.6309,4.71668 6.6309,10.535 z" fill="#fff"/>
     <ellipse cx="1027.4" cy="316.06" rx="7.4597" ry="14.047" d="m 1034.8597,316.06 c 0,7.75794 -3.3398,14.047 -7.4597,14.047 -4.1199,0 -7.4597,-6.28906 -7.4597,-14.047 0,-7.75795 3.3398,-14.047 7.4597,-14.047 4.1199,0 7.4597,6.28905 7.4597,14.047 z" fill="#fff"/>
     <ellipse cx="1020.8" cy="371.08" rx="9.1175" ry="12.877" d="m 1029.9175,371.07999 c 0,7.11177 -4.0821,12.877 -9.1175,12.877 -5.0355,0 -9.1175,-5.76523 -9.1175,-12.877 0,-7.11177 4.082,-12.877 9.1175,-12.877 5.0354,0 9.1175,5.76523 9.1175,12.877 z" fill="#fff"/>
     <ellipse cx="978.53" cy="355.86" rx="6.6309" ry="16.389" d="m 985.16093,355.85999 c 0,9.05139 -2.96876,16.389 -6.6309,16.389 -3.66215,0 -6.6309,-7.33761 -6.6309,-16.389 0,-9.0514 2.96875,-16.389 6.6309,-16.389 3.66214,0 6.6309,7.3376 6.6309,16.389 z" fill="#fff"/>
    </g>
    <ellipse cx="1152.2" cy="404.19" rx="4.7363" ry="8.2308" d="m 1156.9363,404.19 c 0,4.54575 -2.1206,8.2308 -4.7363,8.2308 -2.6158,0 -4.7363,-3.68505 -4.7363,-8.2308 0,-4.54574 2.1205,-8.2308 4.7363,-8.2308 2.6157,0 4.7363,3.68506 4.7363,8.2308 z" fill="#fff"/>
    <ellipse cx="1170.5" cy="417.91" rx="5.3284" ry="10.974" d="m 1175.8284,417.91 c 0,6.06078 -2.3856,10.974 -5.3284,10.974 -2.9428,0 -5.3284,-4.91322 -5.3284,-10.974 0,-6.06077 2.3856,-10.974 5.3284,-10.974 2.9428,0 5.3284,4.91323 5.3284,10.974 z" fill="#fff"/>
    <ellipse cx="1165.8" cy="460.89" rx="6.5125" ry="10.06" d="m 1172.3125,460.89001 c 0,5.55599 -2.9157,10.06001 -6.5125,10.06001 -3.5967,0 -6.5125,-4.50402 -6.5125,-10.06001 0,-5.55598 2.9158,-10.06 6.5125,-10.06 3.5968,0 6.5125,4.50402 6.5125,10.06 z" fill="#fff"/>
    <ellipse cx="1135.6" cy="449" rx="4.7363" ry="12.804" d="m 1140.3363,449 c 0,7.07145 -2.1205,12.804 -4.7363,12.804 -2.6158,0 -4.7363,-5.73255 -4.7363,-12.804 0,-7.07145 2.1205,-12.804 4.7363,-12.804 2.6158,0 4.7363,5.73255 4.7363,12.804 z" fill="#fff"/>
    <ellipse transform="scale(-1,1)" cx="-1088.6" cy="32.228" rx="4.7363" ry="8.2308" d="m -1083.8637,32.228001 c 0,4.545745 -2.1205,8.230799 -4.7363,8.230799 -2.6158,0 -4.7363,-3.685054 -4.7363,-8.230799 0,-4.545745 2.1205,-8.2308 4.7363,-8.2308 2.6158,0 4.7363,3.685055 4.7363,8.2308 z" fill="#fff"/>
    <ellipse transform="scale(-1,1)" cx="-1070.2" cy="45.946" rx="5.3283" ry="10.974" d="m -1064.8717,45.945999 c 0,6.060773 -2.3855,10.974 -5.3283,10.974 -2.9427,0 -5.3283,-4.913227 -5.3283,-10.974 0,-6.060773 2.3856,-10.974 5.3283,-10.974 2.9428,0 5.3283,4.913227 5.3283,10.974 z" fill="#fff"/>
    <ellipse transform="scale(-1,1)" cx="-1075" cy="88.93" rx="6.5124" ry="10.06" d="m -1068.4876,88.93 c 0,5.555985 -2.9157,10.060001 -6.5124,10.060001 -3.5967,0 -6.5124,-4.504016 -6.5124,-10.060001 0,-5.555985 2.9157,-10.06 6.5124,-10.06 3.5967,0 6.5124,4.504015 6.5124,10.06 z" fill="#fff"/>
    <ellipse transform="scale(-1,1)" cx="-1105.1" cy="77.041" rx="4.7363" ry="12.804" d="m -1100.3637,77.041 c 0,7.071454 -2.1205,12.804 -4.7363,12.804 -2.6158,0 -4.7363,-5.732546 -4.7363,-12.804 0,-7.071454 2.1205,-12.804 4.7363,-12.804 2.6158,0 4.7363,5.732546 4.7363,12.804 z" fill="#fff"/>
    <ellipse transform="matrix(.89133 -.45335 .45335 .89133 0 0)" cx="915.46" cy="701.22" rx="38.996" ry="23.997" d="m 954.45602,701.21997 c 0,13.25318 -17.4591,23.997 -38.996,23.997 -21.53689,0 -38.996,-10.74382 -38.996,-23.997 0,-13.25318 17.45911,-23.997 38.996,-23.997 21.5369,0 38.996,10.74382 38.996,23.997 z" fill="#008000" stroke="#808000" stroke-linecap="round" stroke-width="10"/>
    <ellipse transform="matrix(.87697 .48054 -.48054 .87697 0 0)" cx="1081.6" cy="-82.385" rx="38.996" ry="23.997" d="m 1120.596,-82.385002 c 0,13.253177 -17.4591,23.997 -38.996,23.997 -21.5369,0 -38.996,-10.743823 -38.996,-23.997 0,-13.253177 17.4591,-23.996998 38.996,-23.996998 21.5369,0 38.996,10.743821 38.996,23.996998 z" fill="#008000" stroke="#808000" stroke-linecap="round" stroke-width="10"/>
    <path transform="matrix(1.819,0,0,1.7356,-825.52,-1130.9)" d="m1028.9 872.91c2.3629-0.0666 1.2555 3.1522 0.1106 3.9272-3.1024 2.1002-6.9108-0.69048-7.9651-3.7059-1.8858-5.3939 2.3637-10.755 7.5225-12.003 7.5708-1.8308 14.668 4.0429 16.041 11.339 1.83 9.7246-5.7221 18.607-15.156 20.079-11.871 1.8526-22.558-7.4007-24.117-18.972-1.8875-14.015 9.079-26.517 22.789-28.155 16.156-1.9296 30.481 10.757 32.192 26.605 1.9761 18.298-12.435 34.448-30.422 36.23-20.438 2.0256-38.417-14.112-40.268-34.238-2.0773-22.578 15.79-42.387 38.055-44.306 24.718-2.1306 46.359 17.467 48.344 41.872 2.1849 26.858-19.145 50.331-45.688 52.382-16.397 1.2667-32.703-5.6424-43.434-18.058" fill="none" stroke="#e6e6e6" stroke-width="3.6223"/>
    <path transform="matrix(1.819,0,0,1.7356,-765.53,-1178.9)" d="m1028.9 872.91c2.3629-0.0666 1.2555 3.1522 0.1106 3.9272-3.1024 2.1002-6.9108-0.69048-7.9651-3.7059-1.8858-5.3939 2.3637-10.755 7.5225-12.003 7.5708-1.8308 14.668 4.0429 16.041 11.339 1.83 9.7246-5.7221 18.607-15.156 20.079-11.871 1.8526-22.558-7.4007-24.117-18.972-1.8875-14.015 9.079-26.517 22.789-28.155 16.156-1.9296 30.481 10.757 32.192 26.605 1.9761 18.298-12.435 34.448-30.422 36.23-20.438 2.0256-38.417-14.112-40.268-34.238-2.0773-22.578 15.79-42.387 38.055-44.306 24.718-2.1306 46.359 17.467 48.344 41.872 2.1849 26.858-19.145 50.331-45.688 52.382-16.397 1.2667-32.703-5.6424-43.434-18.058" fill="none" stroke="#e6e6e6" stroke-width="3.6223"/>
    <path transform="matrix(1.819,0,0,1.7356,-765.53,-1259.9)" d="m1028.9 872.91c2.3629-0.0666 1.2555 3.1522 0.1106 3.9272-3.1024 2.1002-6.9108-0.69048-7.9651-3.7059-1.8858-5.3939 2.3637-10.755 7.5225-12.003 7.5708-1.8308 14.668 4.0429 16.041 11.339 1.83 9.7246-5.7221 18.607-15.156 20.079-11.871 1.8526-22.558-7.4007-24.117-18.972-1.8875-14.015 9.079-26.517 22.789-28.155 16.156-1.9296 30.481 10.757 32.192 26.605 1.9761 18.298-12.435 34.448-30.422 36.23-20.438 2.0256-38.417-14.112-40.268-34.238-2.0773-22.578 15.79-42.387 38.055-44.306 24.718-2.1306 46.359 17.467 48.344 41.872 2.1849 26.858-19.145 50.331-45.688 52.382-16.397 1.2667-32.703-5.6424-43.434-18.058" fill="none" stroke="#e6e6e6" stroke-width="3.6223"/>
    <path transform="matrix(1.819,0,0,1.7356,-771.53,-1442.9)" d="m1028.9 872.91c2.3629-0.0666 1.2555 3.1522 0.1106 3.9272-3.1024 2.1002-6.9108-0.69048-7.9651-3.7059-1.8858-5.3939 2.3637-10.755 7.5225-12.003 7.5708-1.8308 14.668 4.0429 16.041 11.339 1.83 9.7246-5.7221 18.607-15.156 20.079-11.871 1.8526-22.558-7.4007-24.117-18.972-1.8875-14.015 9.079-26.517 22.789-28.155 16.156-1.9296 30.481 10.757 32.192 26.605 1.9761 18.298-12.435 34.448-30.422 36.23-20.438 2.0256-38.417-14.112-40.268-34.238-2.0773-22.578 15.79-42.387 38.055-44.306 24.718-2.1306 46.359 17.467 48.344 41.872 2.1849 26.858-19.145 50.331-45.688 52.382-16.397 1.2667-32.703-5.6424-43.434-18.058" fill="none" stroke="#e6e6e6" stroke-width="3.6223"/>
    <path transform="matrix(1.819,0,0,1.7356,-810.52,-1352.9)" d="m1028.9 872.91c2.3629-0.0666 1.2555 3.1522 0.1106 3.9272-3.1024 2.1002-6.9108-0.69048-7.9651-3.7059-1.8858-5.3939 2.3637-10.755 7.5225-12.003 7.5708-1.8308 14.668 4.0429 16.041 11.339 1.83 9.7246-5.7221 18.607-15.156 20.079-11.871 1.8526-22.558-7.4007-24.117-18.972-1.8875-14.015 9.079-26.517 22.789-28.155 16.156-1.9296 30.481 10.757 32.192 26.605 1.9761 18.298-12.435 34.448-30.422 36.23-20.438 2.0256-38.417-14.112-40.268-34.238-2.0773-22.578 15.79-42.387 38.055-44.306 24.718-2.1306 46.359 17.467 48.344 41.872 2.1849 26.858-19.145 50.331-45.688 52.382-16.397 1.2667-32.703-5.6424-43.434-18.058" fill="none" stroke="#e6e6e6" stroke-width="3.6223"/>
    <path transform="matrix(1.819,0,0,1.7356,-627.54,-1061.9)" d="m1028.9 872.91c2.3629-0.0666 1.2555 3.1522 0.1106 3.9272-3.1024 2.1002-6.9108-0.69048-7.9651-3.7059-1.8858-5.3939 2.3637-10.755 7.5225-12.003 7.5708-1.8308 14.668 4.0429 16.041 11.339 1.83 9.7246-5.7221 18.607-15.156 20.079-11.871 1.8526-22.558-7.4007-24.117-18.972-1.8875-14.015 9.079-26.517 22.789-28.155 16.156-1.9296 30.481 10.757 32.192 26.605 1.9761 18.298-12.435 34.448-30.422 36.23-20.438 2.0256-38.417-14.112-40.268-34.238-2.0773-22.578 15.79-42.387 38.055-44.306 24.718-2.1306 46.359 17.467 48.344 41.872 2.1849 26.858-19.145 50.331-45.688 52.382-16.397 1.2667-32.703-5.6424-43.434-18.058" fill="none" stroke="#e6e6e6" stroke-width="3.6223"/>
    <path transform="matrix(1.3067,0,0,1.2467,-239.61,-1128.2)" d="m1028.9 872.91c2.3629-0.0666 1.2555 3.1522 0.1106 3.9272-3.1024 2.1002-6.9108-0.69048-7.9651-3.7059-1.8858-5.3939 2.3637-10.755 7.5225-12.003 7.5708-1.8308 14.668 4.0429 16.041 11.339 1.83 9.7246-5.7221 18.607-15.156 20.079-11.871 1.8526-22.558-7.4007-24.117-18.972-1.8875-14.015 9.079-26.517 22.789-28.155 16.156-1.9296 30.481 10.757 32.192 26.605 1.9761 18.298-12.435 34.448-30.422 36.23-20.438 2.0256-38.417-14.112-40.268-34.238-2.0773-22.578 15.79-42.387 38.055-44.306 24.718-2.1306 46.359 17.467 48.344 41.872 2.1849 26.858-19.145 50.331-45.688 52.382-16.397 1.2667-32.703-5.6424-43.434-18.058" fill="none" stroke="#e6e6e6" stroke-width="3.6223"/>
   </g>
   <path d="m488.95 73.077c19.754 11.107 77.64 6.7027 83.991-5.9994 2.4026-4.8051-0.56701-8.7155 5.9994-11.999 5.3462-2.6731 16.075 3.2821 20.998 0 13.322-8.8814 25.562-13.563 35.996-23.997 8.999-8.999 44.995 8.999 53.994 0 25.543-25.543 107.72-26.181 116.99-53.994 0.52715-1.5814-29.793-14.998-44.995-14.998" fill="#fc0"/>
   <ellipse transform="matrix(1 0 0 .29817 232.15 -90.088)" cx="414.83" cy="307.6" rx="42.868" ry="48.144" d="m 457.69799,307.60001 c 0,26.58919 -19.19266,48.144 -42.868,48.144 -23.67535,0 -42.868,-21.55481 -42.868,-48.144 0,-26.5892 19.19265,-48.144 42.868,-48.144 23.67534,0 42.868,21.5548 42.868,48.144 z" fill="#fc0" filter="url(#d)" opacity=".325"/>
   <ellipse transform="matrix(1 0 0 .29817 -170.15 -98.003)" cx="478.14" cy="293.09" rx="30.997" ry="33.635" d="m 509.13701,293.09 c 0,18.57609 -13.87783,33.63499 -30.997,33.63499 -17.11917,0 -30.997,-15.0589 -30.997,-33.63499 0,-18.5761 13.87783,-33.635 30.997,-33.635 17.11917,0 30.997,15.0589 30.997,33.635 z" fill="#f95" filter="url(#c)" opacity=".325"/>
   <path d="m771.62-22.81c-22.884 6.6392-59.646 1.6094-75.184 17.147-2.0856 2.0855 9.9996 1.8715 7.9141 3.957-6.6668 6.6668-36.649 13.19-27.699 13.19 15.57 0 35.584 0.05941 42.209-13.19 1.2208-2.4416 10.586-5.344 11.871-7.9141 1.3121-2.6242 16.221 2.2454 18.466 0 7.1892-7.1892 19.969-10.736 27.699-18.466" fill="#fff"/>
  </g>
  <g transform="translate(98.849,-14.309)">
   <g transform="matrix(-.37709 -.090317 .081591 -.34066 460.79 543.63)">
    <path d="m305.65 144.25c-39.752-5.9548-29.559 66.383-31.756 67.482-6.7394 3.3697-17.049 3.4267-23.817 7.9391-6.9391 4.626-5.36 13.299-9.9238 17.863-9.193 9.193-25.129 12.883-33.741 25.802-20.214 30.321-33.367 63.138-59.543 89.314-5.3246 5.3246 0.69221 27.095-3.9695 31.756-18.592 18.592-25.531 37.44-43.665 55.573-16.027 16.027 2.7931 86.521-5.9543 95.269-22.469 22.469-60.222 40.322-39.695 81.375 0.38402 0.76805 56.374 7.5444 63.512 9.9238 35.682 11.894 79.971 16.072 115.12 27.787 12.444 4.1481 23.67 18.288 37.711 19.848 65.293 7.2547 134.45 1.9848 200.46 1.9848h73.436c0.52806 0 5.7904 0.32776 5.9543 0 3.2404-6.4808 9.6741-11.409 13.893-19.848 1.3013-2.6026 11.824-10.008 5.9543-15.878-43.401-43.401-192.52-170.43-192.52-220.31 0-0.74 0.1864-118.9 0-119.09l-7.9391-7.9391c-1.3748-1.3748 1.7192-13.034 0-13.893-8.2014-4.1007-49.742-76.598-59.543-91.299-9.0827-13.624 6.5797-29.599-3.9695-43.665z" fill="#fc0"/>
    <g transform="matrix(1 .10868 0 .62704 -793.07 155.19)">
     <path d="m1100.9-203.98-257.97 758.92h509.95l-73.125-220.25a26.997 32.997 0 0 1 -16.865 7.2695 26.997 32.997 0 0 1 -26.998 -32.996 26.997 32.997 0 0 1 11.822 -27.25 26.997 32.997 0 0 1 -23.82 -32.744 26.997 32.997 0 0 1 11.773 -27.207 26.997 32.997 0 0 1 -2.7754 0.21094 26.997 32.997 0 0 1 -26.996 -32.996 26.997 32.997 0 0 1 15.568 -29.852l-120.56-363.11z" fill="#fc0"/>
     <path d="m1097.9-149.98c3.5291 33.162-13.74 28.738-29.997 44.995-13.556 13.556 17.259 39.735 5.9994 50.995-29.69 29.69-6.6526 45.649-41.996 80.991-3.4353 3.4353 14.03 73.977 5.9993 77.992-6.4796 3.2398-3.0194 10.509-5.9993 11.999-37.17 18.585-20.246 74.24-65.993 119.99-12.787 12.787-0.36524 51.36-11.999 62.993-13.85 13.85 1.8753 36.37-2.9997 50.995-2.1484 6.4451-8.1013 8.1013-11.999 11.999-19.495 19.495 20.346 38.996-11.999 38.996-35.634 0-20.998 58.473-20.998 83.991 0 7.3943-24.548 35.446-23.997 35.996 7.5878 7.5878 70.401 10.764 80.991 8.999 4.9891-0.83152 48.081-24.083 53.994-29.997 0.5616-0.56153 56.818 11.999 62.993 11.999 14.831 0-7.5263-1.4728 0-8.999 3.8542-3.8542 11.506 5.6819 14.998 5.9994 10.008 0.90977 19.989 2.0899 29.997 2.9997 0.5982 0.0544 8.9991-0.0435 8.9991 0 0 8.5477 15.374 11.124 26.997 14.998 40.053 13.351 37.816-47.995 74.992-47.995 2.2183 0 26.099 1.7955 26.997 0 5.9845-11.969 33.549-57.666 23.997-71.992-12.318-18.477-46.966-61.965-59.994-74.992-19.22-19.22 5.9994-47.153 5.9994-47.995 0-9.5689-26.997-6.8966-26.997-23.997 0-11.815 4.5897-21.178 8.9991-29.997 0.8943-1.7887 7.9991 0 5.9993 0-6.5455 0-43.468-12.054-35.996-26.997 6.0081-12.016 21.554-62.437 17.998-65.993-14.496-14.496-26.418-29.418-35.996-38.996-10.999-10.999 10.999-54.994 0-65.993-12.984-12.984-17.803-32.802-29.997-44.995-12.499-12.499 12.499-62.493 0-74.992-13.81-13.81-33.1-39.409-38.996-62.993z" fill="#ffe680" stroke="#f60" stroke-width="1px"/>
     <ellipse cx="1085.9" cy="65.993" rx="50.995" ry="56.994" d="m 1136.895,65.992996 c 0,31.476917 -22.8312,56.994004 -50.995,56.994004 -28.1637,0 -50.995,-25.517087 -50.995,-56.994004 0,-31.476917 22.8313,-56.9939993 50.995,-56.9939993 28.1638,0 50.995,25.5170823 50.995,56.9939993 z" fill="#f00" stroke="#f60" stroke-linecap="round" stroke-width="10"/>
     <ellipse cx="1159.4" cy="433.45" rx="61.493" ry="64.493" d="m 1220.893,433.45001 c 0,35.6185 -27.5313,64.493 -61.493,64.493 -33.9616,0 -61.493,-28.8745 -61.493,-64.493 0,-35.6185 27.5314,-64.49299 61.493,-64.49299 33.9617,0 61.493,28.87449 61.493,64.49299 z" fill="#f00" stroke="#d45500" stroke-linecap="round" stroke-width="10"/>
     <g transform="matrix(.89383 .44841 -.44841 .89383 290.54 -470.46)">
      <ellipse cx="1003.4" cy="343.46" rx="64.493" ry="76.492" d="m 1067.893,343.45999 c 0,42.24536 -28.8745,76.492 -64.493,76.492 -35.61847,0 -64.49297,-34.24664 -64.49297,-76.492 0,-42.24536 28.8745,-76.492 64.49297,-76.492 35.6185,0 64.493,34.24664 64.493,76.492 z" fill="#f00" stroke="#d45500" stroke-linecap="round" stroke-width="10"/>
      <ellipse cx="1001.7" cy="298.5" rx="6.6309" ry="10.535" d="m 1008.3309,298.5 c 0,5.81832 -2.9687,10.535 -6.6309,10.535 -3.66213,0 -6.63089,-4.71668 -6.63089,-10.535 0,-5.81832 2.96876,-10.535 6.63089,-10.535 3.6622,0 6.6309,4.71668 6.6309,10.535 z" fill="#fff"/>
      <ellipse cx="1027.4" cy="316.06" rx="7.4597" ry="14.047" d="m 1034.8597,316.06 c 0,7.75794 -3.3398,14.047 -7.4597,14.047 -4.1199,0 -7.4597,-6.28906 -7.4597,-14.047 0,-7.75795 3.3398,-14.047 7.4597,-14.047 4.1199,0 7.4597,6.28905 7.4597,14.047 z" fill="#fff"/>
      <ellipse cx="1020.8" cy="371.08" rx="9.1175" ry="12.877" d="m 1029.9175,371.07999 c 0,7.11177 -4.0821,12.877 -9.1175,12.877 -5.0355,0 -9.1175,-5.76523 -9.1175,-12.877 0,-7.11177 4.082,-12.877 9.1175,-12.877 5.0354,0 9.1175,5.76523 9.1175,12.877 z" fill="#fff"/>
      <ellipse cx="978.53" cy="355.86" rx="6.6309" ry="16.389" d="m 985.16093,355.85999 c 0,9.05139 -2.96876,16.389 -6.6309,16.389 -3.66215,0 -6.6309,-7.33761 -6.6309,-16.389 0,-9.0514 2.96875,-16.389 6.6309,-16.389 3.66214,0 6.6309,7.3376 6.6309,16.389 z" fill="#fff"/>
     </g>
     <ellipse cx="1152.2" cy="404.19" rx="4.7363" ry="8.2308" d="m 1156.9363,404.19 c 0,4.54575 -2.1206,8.2308 -4.7363,8.2308 -2.6158,0 -4.7363,-3.68505 -4.7363,-8.2308 0,-4.54574 2.1205,-8.2308 4.7363,-8.2308 2.6157,0 4.7363,3.68506 4.7363,8.2308 z" fill="#fff"/>
     <ellipse cx="1170.5" cy="417.91" rx="5.3284" ry="10.974" d="m 1175.8284,417.91 c 0,6.06078 -2.3856,10.974 -5.3284,10.974 -2.9428,0 -5.3284,-4.91322 -5.3284,-10.974 0,-6.06077 2.3856,-10.974 5.3284,-10.974 2.9428,0 5.3284,4.91323 5.3284,10.974 z" fill="#fff"/>
     <ellipse cx="1165.8" cy="460.89" rx="6.5125" ry="10.06" d="m 1172.3125,460.89001 c 0,5.55599 -2.9157,10.06001 -6.5125,10.06001 -3.5967,0 -6.5125,-4.50402 -6.5125,-10.06001 0,-5.55598 2.9158,-10.06 6.5125,-10.06 3.5968,0 6.5125,4.50402 6.5125,10.06 z" fill="#fff"/>
     <ellipse cx="1135.6" cy="449" rx="4.7363" ry="12.804" d="m 1140.3363,449 c 0,7.07145 -2.1205,12.804 -4.7363,12.804 -2.6158,0 -4.7363,-5.73255 -4.7363,-12.804 0,-7.07145 2.1205,-12.804 4.7363,-12.804 2.6158,0 4.7363,5.73255 4.7363,12.804 z" fill="#fff"/>
     <ellipse transform="scale(-1,1)" cx="-1088.6" cy="32.228" rx="4.7363" ry="8.2308" d="m -1083.8637,32.228001 c 0,4.545745 -2.1205,8.230799 -4.7363,8.230799 -2.6158,0 -4.7363,-3.685054 -4.7363,-8.230799 0,-4.545745 2.1205,-8.2308 4.7363,-8.2308 2.6158,0 4.7363,3.685055 4.7363,8.2308 z" fill="#fff"/>
     <ellipse transform="scale(-1,1)" cx="-1070.2" cy="45.946" rx="5.3283" ry="10.974" d="m -1064.8717,45.945999 c 0,6.060773 -2.3855,10.974 -5.3283,10.974 -2.9427,0 -5.3283,-4.913227 -5.3283,-10.974 0,-6.060773 2.3856,-10.974 5.3283,-10.974 2.9428,0 5.3283,4.913227 5.3283,10.974 z" fill="#fff"/>
     <ellipse transform="scale(-1,1)" cx="-1075" cy="88.93" rx="6.5124" ry="10.06" d="m -1068.4876,88.93 c 0,5.555985 -2.9157,10.060001 -6.5124,10.060001 -3.5967,0 -6.5124,-4.504016 -6.5124,-10.060001 0,-5.555985 2.9157,-10.06 6.5124,-10.06 3.5967,0 6.5124,4.504015 6.5124,10.06 z" fill="#fff"/>
     <ellipse transform="scale(-1,1)" cx="-1105.1" cy="77.041" rx="4.7363" ry="12.804" d="m -1100.3637,77.041 c 0,7.071454 -2.1205,12.804 -4.7363,12.804 -2.6158,0 -4.7363,-5.732546 -4.7363,-12.804 0,-7.071454 2.1205,-12.804 4.7363,-12.804 2.6158,0 4.7363,5.732546 4.7363,12.804 z" fill="#fff"/>
     <ellipse transform="matrix(.89133 -.45335 .45335 .89133 0 0)" cx="915.46" cy="701.22" rx="38.996" ry="23.997" d="m 954.45602,701.21997 c 0,13.25318 -17.4591,23.997 -38.996,23.997 -21.53689,0 -38.996,-10.74382 -38.996,-23.997 0,-13.25318 17.45911,-23.997 38.996,-23.997 21.5369,0 38.996,10.74382 38.996,23.997 z" fill="#008000" stroke="#808000" stroke-linecap="round" stroke-width="10"/>
     <ellipse transform="matrix(.87697 .48054 -.48054 .87697 0 0)" cx="1081.6" cy="-82.385" rx="38.996" ry="23.997" d="m 1120.596,-82.385002 c 0,13.253177 -17.4591,23.997 -38.996,23.997 -21.5369,0 -38.996,-10.743823 -38.996,-23.997 0,-13.253177 17.4591,-23.996998 38.996,-23.996998 21.5369,0 38.996,10.743821 38.996,23.996998 z" fill="#008000" stroke="#808000" stroke-linecap="round" stroke-width="10"/>
     <path transform="matrix(1.819,0,0,1.7356,-825.52,-1130.9)" d="m1028.9 872.91c2.3629-0.0666 1.2555 3.1522 0.1106 3.9272-3.1024 2.1002-6.9108-0.69048-7.9651-3.7059-1.8858-5.3939 2.3637-10.755 7.5225-12.003 7.5708-1.8308 14.668 4.0429 16.041 11.339 1.83 9.7246-5.7221 18.607-15.156 20.079-11.871 1.8526-22.558-7.4007-24.117-18.972-1.8875-14.015 9.079-26.517 22.789-28.155 16.156-1.9296 30.481 10.757 32.192 26.605 1.9761 18.298-12.435 34.448-30.422 36.23-20.438 2.0256-38.417-14.112-40.268-34.238-2.0773-22.578 15.79-42.387 38.055-44.306 24.718-2.1306 46.359 17.467 48.344 41.872 2.1849 26.858-19.145 50.331-45.688 52.382-16.397 1.2667-32.703-5.6424-43.434-18.058" fill="none" stroke="#e6e6e6" stroke-width="3.6223"/>
     <path transform="matrix(1.819,0,0,1.7356,-765.53,-1178.9)" d="m1028.9 872.91c2.3629-0.0666 1.2555 3.1522 0.1106 3.9272-3.1024 2.1002-6.9108-0.69048-7.9651-3.7059-1.8858-5.3939 2.3637-10.755 7.5225-12.003 7.5708-1.8308 14.668 4.0429 16.041 11.339 1.83 9.7246-5.7221 18.607-15.156 20.079-11.871 1.8526-22.558-7.4007-24.117-18.972-1.8875-14.015 9.079-26.517 22.789-28.155 16.156-1.9296 30.481 10.757 32.192 26.605 1.9761 18.298-12.435 34.448-30.422 36.23-20.438 2.0256-38.417-14.112-40.268-34.238-2.0773-22.578 15.79-42.387 38.055-44.306 24.718-2.1306 46.359 17.467 48.344 41.872 2.1849 26.858-19.145 50.331-45.688 52.382-16.397 1.2667-32.703-5.6424-43.434-18.058" fill="none" stroke="#e6e6e6" stroke-width="3.6223"/>
     <path transform="matrix(1.819,0,0,1.7356,-765.53,-1259.9)" d="m1028.9 872.91c2.3629-0.0666 1.2555 3.1522 0.1106 3.9272-3.1024 2.1002-6.9108-0.69048-7.9651-3.7059-1.8858-5.3939 2.3637-10.755 7.5225-12.003 7.5708-1.8308 14.668 4.0429 16.041 11.339 1.83 9.7246-5.7221 18.607-15.156 20.079-11.871 1.8526-22.558-7.4007-24.117-18.972-1.8875-14.015 9.079-26.517 22.789-28.155 16.156-1.9296 30.481 10.757 32.192 26.605 1.9761 18.298-12.435 34.448-30.422 36.23-20.438 2.0256-38.417-14.112-40.268-34.238-2.0773-22.578 15.79-42.387 38.055-44.306 24.718-2.1306 46.359 17.467 48.344 41.872 2.1849 26.858-19.145 50.331-45.688 52.382-16.397 1.2667-32.703-5.6424-43.434-18.058" fill="none" stroke="#e6e6e6" stroke-width="3.6223"/>
     <path transform="matrix(1.819,0,0,1.7356,-771.53,-1442.9)" d="m1028.9 872.91c2.3629-0.0666 1.2555 3.1522 0.1106 3.9272-3.1024 2.1002-6.9108-0.69048-7.9651-3.7059-1.8858-5.3939 2.3637-10.755 7.5225-12.003 7.5708-1.8308 14.668 4.0429 16.041 11.339 1.83 9.7246-5.7221 18.607-15.156 20.079-11.871 1.8526-22.558-7.4007-24.117-18.972-1.8875-14.015 9.079-26.517 22.789-28.155 16.156-1.9296 30.481 10.757 32.192 26.605 1.9761 18.298-12.435 34.448-30.422 36.23-20.438 2.0256-38.417-14.112-40.268-34.238-2.0773-22.578 15.79-42.387 38.055-44.306 24.718-2.1306 46.359 17.467 48.344 41.872 2.1849 26.858-19.145 50.331-45.688 52.382-16.397 1.2667-32.703-5.6424-43.434-18.058" fill="none" stroke="#e6e6e6" stroke-width="3.6223"/>
     <path transform="matrix(1.819,0,0,1.7356,-810.52,-1352.9)" d="m1028.9 872.91c2.3629-0.0666 1.2555 3.1522 0.1106 3.9272-3.1024 2.1002-6.9108-0.69048-7.9651-3.7059-1.8858-5.3939 2.3637-10.755 7.5225-12.003 7.5708-1.8308 14.668 4.0429 16.041 11.339 1.83 9.7246-5.7221 18.607-15.156 20.079-11.871 1.8526-22.558-7.4007-24.117-18.972-1.8875-14.015 9.079-26.517 22.789-28.155 16.156-1.9296 30.481 10.757 32.192 26.605 1.9761 18.298-12.435 34.448-30.422 36.23-20.438 2.0256-38.417-14.112-40.268-34.238-2.0773-22.578 15.79-42.387 38.055-44.306 24.718-2.1306 46.359 17.467 48.344 41.872 2.1849 26.858-19.145 50.331-45.688 52.382-16.397 1.2667-32.703-5.6424-43.434-18.058" fill="none" stroke="#e6e6e6" stroke-width="3.6223"/>
     <path transform="matrix(1.819,0,0,1.7356,-627.54,-1061.9)" d="m1028.9 872.91c2.3629-0.0666 1.2555 3.1522 0.1106 3.9272-3.1024 2.1002-6.9108-0.69048-7.9651-3.7059-1.8858-5.3939 2.3637-10.755 7.5225-12.003 7.5708-1.8308 14.668 4.0429 16.041 11.339 1.83 9.7246-5.7221 18.607-15.156 20.079-11.871 1.8526-22.558-7.4007-24.117-18.972-1.8875-14.015 9.079-26.517 22.789-28.155 16.156-1.9296 30.481 10.757 32.192 26.605 1.9761 18.298-12.435 34.448-30.422 36.23-20.438 2.0256-38.417-14.112-40.268-34.238-2.0773-22.578 15.79-42.387 38.055-44.306 24.718-2.1306 46.359 17.467 48.344 41.872 2.1849 26.858-19.145 50.331-45.688 52.382-16.397 1.2667-32.703-5.6424-43.434-18.058" fill="none" stroke="#e6e6e6" stroke-width="3.6223"/>
     <path transform="matrix(1.3067,0,0,1.2467,-239.61,-1128.2)" d="m1028.9 872.91c2.3629-0.0666 1.2555 3.1522 0.1106 3.9272-3.1024 2.1002-6.9108-0.69048-7.9651-3.7059-1.8858-5.3939 2.3637-10.755 7.5225-12.003 7.5708-1.8308 14.668 4.0429 16.041 11.339 1.83 9.7246-5.7221 18.607-15.156 20.079-11.871 1.8526-22.558-7.4007-24.117-18.972-1.8875-14.015 9.079-26.517 22.789-28.155 16.156-1.9296 30.481 10.757 32.192 26.605 1.9761 18.298-12.435 34.448-30.422 36.23-20.438 2.0256-38.417-14.112-40.268-34.238-2.0773-22.578 15.79-42.387 38.055-44.306 24.718-2.1306 46.359 17.467 48.344 41.872 2.1849 26.858-19.145 50.331-45.688 52.382-16.397 1.2667-32.703-5.6424-43.434-18.058" fill="none" stroke="#e6e6e6" stroke-width="3.6223"/>
    </g>
   </g>
   <g fill="#fff">
    <path d="m404.22 298.13c-6.1628-5.1267-12.362-7.7158-16.726-12.08-2.1682-2.1682-10.841 2.1682-13.009 0-0.695-0.69501-2.7291-3.7755-4.6462-1.8585-3.815 3.815 12.016 2.2912 13.009 2.7877 3.6819 1.841-3.5379 2.0375-0.92923 4.6462 0.70969 0.70969 18.754 4.7307 22.302 6.5046z"/>
    <path d="m459.04 323.22c-28.273-8.4161-21.439 0 0 0z"/>
   </g>
  </g>
  <g transform="translate(2.9771,23.817)">
   <g transform="matrix(.44379 .28185 -.35029 .083592 217.53 215.92)">
    <path d="m305.65 144.25c-39.752-5.9548-29.559 66.383-31.756 67.482-6.7394 3.3697-17.049 3.4267-23.817 7.9391-6.9391 4.626-5.36 13.299-9.9238 17.863-9.193 9.193-25.129 12.883-33.741 25.802-20.214 30.321-33.367 63.138-59.543 89.314-5.3246 5.3246 0.69221 27.095-3.9695 31.756-18.592 18.592-25.531 37.44-43.665 55.573-16.027 16.027 2.7931 86.521-5.9543 95.269-22.469 22.469-60.222 40.322-39.695 81.375 0.38402 0.76805 56.374 7.5444 63.512 9.9238 35.682 11.894 79.971 16.072 115.12 27.787 12.444 4.1481 23.67 18.288 37.711 19.848 65.293 7.2547 134.45 1.9848 200.46 1.9848h73.436c0.52806 0 5.7904 0.32776 5.9543 0 3.2404-6.4808 9.6741-11.409 13.893-19.848 1.3013-2.6026 11.824-10.008 5.9543-15.878-43.401-43.401-192.52-170.43-192.52-220.31 0-0.74 0.1864-118.9 0-119.09l-7.9391-7.9391c-1.3748-1.3748 1.7192-13.034 0-13.893-8.2014-4.1007-49.742-76.598-59.543-91.299-9.0827-13.624 6.5797-29.599-3.9695-43.665z" fill="#fc0"/>
    <g transform="matrix(1 .10868 0 .62704 -793.07 155.19)">
     <path d="m1100.9-203.98-257.97 758.92h509.95l-73.125-220.25a26.997 32.997 0 0 1 -16.865 7.2695 26.997 32.997 0 0 1 -26.998 -32.996 26.997 32.997 0 0 1 11.822 -27.25 26.997 32.997 0 0 1 -23.82 -32.744 26.997 32.997 0 0 1 11.773 -27.207 26.997 32.997 0 0 1 -2.7754 0.21094 26.997 32.997 0 0 1 -26.996 -32.996 26.997 32.997 0 0 1 15.568 -29.852l-120.56-363.11z" fill="#fc0"/>
     <path d="m1097.9-149.98c3.5291 33.162-13.74 28.738-29.997 44.995-13.556 13.556 17.259 39.735 5.9994 50.995-29.69 29.69-6.6526 45.649-41.996 80.991-3.4353 3.4353 14.03 73.977 5.9993 77.992-6.4796 3.2398-3.0194 10.509-5.9993 11.999-37.17 18.585-20.246 74.24-65.993 119.99-12.787 12.787-0.36524 51.36-11.999 62.993-13.85 13.85 1.8753 36.37-2.9997 50.995-2.1484 6.4451-8.1013 8.1013-11.999 11.999-19.495 19.495 20.346 38.996-11.999 38.996-35.634 0-20.998 58.473-20.998 83.991 0 7.3943-24.548 35.446-23.997 35.996 7.5878 7.5878 70.401 10.764 80.991 8.999 4.9891-0.83152 48.081-24.083 53.994-29.997 0.5616-0.56153 56.818 11.999 62.993 11.999 14.831 0-7.5263-1.4728 0-8.999 3.8542-3.8542 11.506 5.6819 14.998 5.9994 10.008 0.90977 19.989 2.0899 29.997 2.9997 0.5982 0.0544 8.9991-0.0435 8.9991 0 0 8.5477 15.374 11.124 26.997 14.998 40.053 13.351 37.816-47.995 74.992-47.995 2.2183 0 26.099 1.7955 26.997 0 5.9845-11.969 33.549-57.666 23.997-71.992-12.318-18.477-46.966-61.965-59.994-74.992-19.22-19.22 5.9994-47.153 5.9994-47.995 0-9.5689-26.997-6.8966-26.997-23.997 0-11.815 4.5897-21.178 8.9991-29.997 0.8943-1.7887 7.9991 0 5.9993 0-6.5455 0-43.468-12.054-35.996-26.997 6.0081-12.016 21.554-62.437 17.998-65.993-14.496-14.496-26.418-29.418-35.996-38.996-10.999-10.999 10.999-54.994 0-65.993-12.984-12.984-17.803-32.802-29.997-44.995-12.499-12.499 12.499-62.493 0-74.992-13.81-13.81-33.1-39.409-38.996-62.993z" fill="#ffe680" stroke="#f60" stroke-width="1px"/>
     <ellipse cx="1085.9" cy="65.993" rx="50.995" ry="56.994" d="m 1136.895,65.992996 c 0,31.476917 -22.8312,56.994004 -50.995,56.994004 -28.1637,0 -50.995,-25.517087 -50.995,-56.994004 0,-31.476917 22.8313,-56.9939993 50.995,-56.9939993 28.1638,0 50.995,25.5170823 50.995,56.9939993 z" fill="#f00" stroke="#f60" stroke-linecap="round" stroke-width="10"/>
     <ellipse cx="1159.4" cy="433.45" rx="61.493" ry="64.493" d="m 1220.893,433.45001 c 0,35.6185 -27.5313,64.493 -61.493,64.493 -33.9616,0 -61.493,-28.8745 -61.493,-64.493 0,-35.6185 27.5314,-64.49299 61.493,-64.49299 33.9617,0 61.493,28.87449 61.493,64.49299 z" fill="#f00" stroke="#d45500" stroke-linecap="round" stroke-width="10"/>
     <g transform="matrix(.89383 .44841 -.44841 .89383 290.54 -470.46)">
      <ellipse cx="1003.4" cy="343.46" rx="64.493" ry="76.492" d="m 1067.893,343.45999 c 0,42.24536 -28.8745,76.492 -64.493,76.492 -35.61847,0 -64.49297,-34.24664 -64.49297,-76.492 0,-42.24536 28.8745,-76.492 64.49297,-76.492 35.6185,0 64.493,34.24664 64.493,76.492 z" fill="#f00" stroke="#d45500" stroke-linecap="round" stroke-width="10"/>
      <ellipse cx="1001.7" cy="298.5" rx="6.6309" ry="10.535" d="m 1008.3309,298.5 c 0,5.81832 -2.9687,10.535 -6.6309,10.535 -3.66213,0 -6.63089,-4.71668 -6.63089,-10.535 0,-5.81832 2.96876,-10.535 6.63089,-10.535 3.6622,0 6.6309,4.71668 6.6309,10.535 z" fill="#fff"/>
      <ellipse cx="1027.4" cy="316.06" rx="7.4597" ry="14.047" d="m 1034.8597,316.06 c 0,7.75794 -3.3398,14.047 -7.4597,14.047 -4.1199,0 -7.4597,-6.28906 -7.4597,-14.047 0,-7.75795 3.3398,-14.047 7.4597,-14.047 4.1199,0 7.4597,6.28905 7.4597,14.047 z" fill="#fff"/>
      <ellipse cx="1020.8" cy="371.08" rx="9.1175" ry="12.877" d="m 1029.9175,371.07999 c 0,7.11177 -4.0821,12.877 -9.1175,12.877 -5.0355,0 -9.1175,-5.76523 -9.1175,-12.877 0,-7.11177 4.082,-12.877 9.1175,-12.877 5.0354,0 9.1175,5.76523 9.1175,12.877 z" fill="#fff"/>
      <ellipse cx="978.53" cy="355.86" rx="6.6309" ry="16.389" d="m 985.16093,355.85999 c 0,9.05139 -2.96876,16.389 -6.6309,16.389 -3.66215,0 -6.6309,-7.33761 -6.6309,-16.389 0,-9.0514 2.96875,-16.389 6.6309,-16.389 3.66214,0 6.6309,7.3376 6.6309,16.389 z" fill="#fff"/>
     </g>
     <ellipse cx="1152.2" cy="404.19" rx="4.7363" ry="8.2308" d="m 1156.9363,404.19 c 0,4.54575 -2.1206,8.2308 -4.7363,8.2308 -2.6158,0 -4.7363,-3.68505 -4.7363,-8.2308 0,-4.54574 2.1205,-8.2308 4.7363,-8.2308 2.6157,0 4.7363,3.68506 4.7363,8.2308 z" fill="#fff"/>
     <ellipse cx="1170.5" cy="417.91" rx="5.3284" ry="10.974" d="m 1175.8284,417.91 c 0,6.06078 -2.3856,10.974 -5.3284,10.974 -2.9428,0 -5.3284,-4.91322 -5.3284,-10.974 0,-6.06077 2.3856,-10.974 5.3284,-10.974 2.9428,0 5.3284,4.91323 5.3284,10.974 z" fill="#fff"/>
     <ellipse cx="1165.8" cy="460.89" rx="6.5125" ry="10.06" d="m 1172.3125,460.89001 c 0,5.55599 -2.9157,10.06001 -6.5125,10.06001 -3.5967,0 -6.5125,-4.50402 -6.5125,-10.06001 0,-5.55598 2.9158,-10.06 6.5125,-10.06 3.5968,0 6.5125,4.50402 6.5125,10.06 z" fill="#fff"/>
     <ellipse cx="1135.6" cy="449" rx="4.7363" ry="12.804" d="m 1140.3363,449 c 0,7.07145 -2.1205,12.804 -4.7363,12.804 -2.6158,0 -4.7363,-5.73255 -4.7363,-12.804 0,-7.07145 2.1205,-12.804 4.7363,-12.804 2.6158,0 4.7363,5.73255 4.7363,12.804 z" fill="#fff"/>
     <ellipse transform="scale(-1,1)" cx="-1088.6" cy="32.228" rx="4.7363" ry="8.2308" d="m -1083.8637,32.228001 c 0,4.545745 -2.1205,8.230799 -4.7363,8.230799 -2.6158,0 -4.7363,-3.685054 -4.7363,-8.230799 0,-4.545745 2.1205,-8.2308 4.7363,-8.2308 2.6158,0 4.7363,3.685055 4.7363,8.2308 z" fill="#fff"/>
     <ellipse transform="scale(-1,1)" cx="-1070.2" cy="45.946" rx="5.3283" ry="10.974" d="m -1064.8717,45.945999 c 0,6.060773 -2.3855,10.974 -5.3283,10.974 -2.9427,0 -5.3283,-4.913227 -5.3283,-10.974 0,-6.060773 2.3856,-10.974 5.3283,-10.974 2.9428,0 5.3283,4.913227 5.3283,10.974 z" fill="#fff"/>
     <ellipse transform="scale(-1,1)" cx="-1075" cy="88.93" rx="6.5124" ry="10.06" d="m -1068.4876,88.93 c 0,5.555985 -2.9157,10.060001 -6.5124,10.060001 -3.5967,0 -6.5124,-4.504016 -6.5124,-10.060001 0,-5.555985 2.9157,-10.06 6.5124,-10.06 3.5967,0 6.5124,4.504015 6.5124,10.06 z" fill="#fff"/>
     <ellipse transform="scale(-1,1)" cx="-1105.1" cy="77.041" rx="4.7363" ry="12.804" d="m -1100.3637,77.041 c 0,7.071454 -2.1205,12.804 -4.7363,12.804 -2.6158,0 -4.7363,-5.732546 -4.7363,-12.804 0,-7.071454 2.1205,-12.804 4.7363,-12.804 2.6158,0 4.7363,5.732546 4.7363,12.804 z" fill="#fff"/>
     <ellipse transform="matrix(.89133 -.45335 .45335 .89133 0 0)" cx="915.46" cy="701.22" rx="38.996" ry="23.997" d="m 954.45602,701.21997 c 0,13.25318 -17.4591,23.997 -38.996,23.997 -21.53689,0 -38.996,-10.74382 -38.996,-23.997 0,-13.25318 17.45911,-23.997 38.996,-23.997 21.5369,0 38.996,10.74382 38.996,23.997 z" fill="#008000" stroke="#808000" stroke-linecap="round" stroke-width="10"/>
     <ellipse transform="matrix(.87697 .48054 -.48054 .87697 0 0)" cx="1081.6" cy="-82.385" rx="38.996" ry="23.997" d="m 1120.596,-82.385002 c 0,13.253177 -17.4591,23.997 -38.996,23.997 -21.5369,0 -38.996,-10.743823 -38.996,-23.997 0,-13.253177 17.4591,-23.996998 38.996,-23.996998 21.5369,0 38.996,10.743821 38.996,23.996998 z" fill="#008000" stroke="#808000" stroke-linecap="round" stroke-width="10"/>
     <path transform="matrix(1.819,0,0,1.7356,-825.52,-1130.9)" d="m1028.9 872.91c2.3629-0.0666 1.2555 3.1522 0.1106 3.9272-3.1024 2.1002-6.9108-0.69048-7.9651-3.7059-1.8858-5.3939 2.3637-10.755 7.5225-12.003 7.5708-1.8308 14.668 4.0429 16.041 11.339 1.83 9.7246-5.7221 18.607-15.156 20.079-11.871 1.8526-22.558-7.4007-24.117-18.972-1.8875-14.015 9.079-26.517 22.789-28.155 16.156-1.9296 30.481 10.757 32.192 26.605 1.9761 18.298-12.435 34.448-30.422 36.23-20.438 2.0256-38.417-14.112-40.268-34.238-2.0773-22.578 15.79-42.387 38.055-44.306 24.718-2.1306 46.359 17.467 48.344 41.872 2.1849 26.858-19.145 50.331-45.688 52.382-16.397 1.2667-32.703-5.6424-43.434-18.058" fill="none" stroke="#e6e6e6" stroke-width="3.6223"/>
     <path transform="matrix(1.819,0,0,1.7356,-765.53,-1178.9)" d="m1028.9 872.91c2.3629-0.0666 1.2555 3.1522 0.1106 3.9272-3.1024 2.1002-6.9108-0.69048-7.9651-3.7059-1.8858-5.3939 2.3637-10.755 7.5225-12.003 7.5708-1.8308 14.668 4.0429 16.041 11.339 1.83 9.7246-5.7221 18.607-15.156 20.079-11.871 1.8526-22.558-7.4007-24.117-18.972-1.8875-14.015 9.079-26.517 22.789-28.155 16.156-1.9296 30.481 10.757 32.192 26.605 1.9761 18.298-12.435 34.448-30.422 36.23-20.438 2.0256-38.417-14.112-40.268-34.238-2.0773-22.578 15.79-42.387 38.055-44.306 24.718-2.1306 46.359 17.467 48.344 41.872 2.1849 26.858-19.145 50.331-45.688 52.382-16.397 1.2667-32.703-5.6424-43.434-18.058" fill="none" stroke="#e6e6e6" stroke-width="3.6223"/>
     <path transform="matrix(1.819,0,0,1.7356,-765.53,-1259.9)" d="m1028.9 872.91c2.3629-0.0666 1.2555 3.1522 0.1106 3.9272-3.1024 2.1002-6.9108-0.69048-7.9651-3.7059-1.8858-5.3939 2.3637-10.755 7.5225-12.003 7.5708-1.8308 14.668 4.0429 16.041 11.339 1.83 9.7246-5.7221 18.607-15.156 20.079-11.871 1.8526-22.558-7.4007-24.117-18.972-1.8875-14.015 9.079-26.517 22.789-28.155 16.156-1.9296 30.481 10.757 32.192 26.605 1.9761 18.298-12.435 34.448-30.422 36.23-20.438 2.0256-38.417-14.112-40.268-34.238-2.0773-22.578 15.79-42.387 38.055-44.306 24.718-2.1306 46.359 17.467 48.344 41.872 2.1849 26.858-19.145 50.331-45.688 52.382-16.397 1.2667-32.703-5.6424-43.434-18.058" fill="none" stroke="#e6e6e6" stroke-width="3.6223"/>
     <path transform="matrix(1.819,0,0,1.7356,-771.53,-1442.9)" d="m1028.9 872.91c2.3629-0.0666 1.2555 3.1522 0.1106 3.9272-3.1024 2.1002-6.9108-0.69048-7.9651-3.7059-1.8858-5.3939 2.3637-10.755 7.5225-12.003 7.5708-1.8308 14.668 4.0429 16.041 11.339 1.83 9.7246-5.7221 18.607-15.156 20.079-11.871 1.8526-22.558-7.4007-24.117-18.972-1.8875-14.015 9.079-26.517 22.789-28.155 16.156-1.9296 30.481 10.757 32.192 26.605 1.9761 18.298-12.435 34.448-30.422 36.23-20.438 2.0256-38.417-14.112-40.268-34.238-2.0773-22.578 15.79-42.387 38.055-44.306 24.718-2.1306 46.359 17.467 48.344 41.872 2.1849 26.858-19.145 50.331-45.688 52.382-16.397 1.2667-32.703-5.6424-43.434-18.058" fill="none" stroke="#e6e6e6" stroke-width="3.6223"/>
     <path transform="matrix(1.819,0,0,1.7356,-810.52,-1352.9)" d="m1028.9 872.91c2.3629-0.0666 1.2555 3.1522 0.1106 3.9272-3.1024 2.1002-6.9108-0.69048-7.9651-3.7059-1.8858-5.3939 2.3637-10.755 7.5225-12.003 7.5708-1.8308 14.668 4.0429 16.041 11.339 1.83 9.7246-5.7221 18.607-15.156 20.079-11.871 1.8526-22.558-7.4007-24.117-18.972-1.8875-14.015 9.079-26.517 22.789-28.155 16.156-1.9296 30.481 10.757 32.192 26.605 1.9761 18.298-12.435 34.448-30.422 36.23-20.438 2.0256-38.417-14.112-40.268-34.238-2.0773-22.578 15.79-42.387 38.055-44.306 24.718-2.1306 46.359 17.467 48.344 41.872 2.1849 26.858-19.145 50.331-45.688 52.382-16.397 1.2667-32.703-5.6424-43.434-18.058" fill="none" stroke="#e6e6e6" stroke-width="3.6223"/>
     <path transform="matrix(1.819,0,0,1.7356,-627.54,-1061.9)" d="m1028.9 872.91c2.3629-0.0666 1.2555 3.1522 0.1106 3.9272-3.1024 2.1002-6.9108-0.69048-7.9651-3.7059-1.8858-5.3939 2.3637-10.755 7.5225-12.003 7.5708-1.8308 14.668 4.0429 16.041 11.339 1.83 9.7246-5.7221 18.607-15.156 20.079-11.871 1.8526-22.558-7.4007-24.117-18.972-1.8875-14.015 9.079-26.517 22.789-28.155 16.156-1.9296 30.481 10.757 32.192 26.605 1.9761 18.298-12.435 34.448-30.422 36.23-20.438 2.0256-38.417-14.112-40.268-34.238-2.0773-22.578 15.79-42.387 38.055-44.306 24.718-2.1306 46.359 17.467 48.344 41.872 2.1849 26.858-19.145 50.331-45.688 52.382-16.397 1.2667-32.703-5.6424-43.434-18.058" fill="none" stroke="#e6e6e6" stroke-width="3.6223"/>
     <path transform="matrix(1.3067,0,0,1.2467,-239.61,-1128.2)" d="m1028.9 872.91c2.3629-0.0666 1.2555 3.1522 0.1106 3.9272-3.1024 2.1002-6.9108-0.69048-7.9651-3.7059-1.8858-5.3939 2.3637-10.755 7.5225-12.003 7.5708-1.8308 14.668 4.0429 16.041 11.339 1.83 9.7246-5.7221 18.607-15.156 20.079-11.871 1.8526-22.558-7.4007-24.117-18.972-1.8875-14.015 9.079-26.517 22.789-28.155 16.156-1.9296 30.481 10.757 32.192 26.605 1.9761 18.298-12.435 34.448-30.422 36.23-20.438 2.0256-38.417-14.112-40.268-34.238-2.0773-22.578 15.79-42.387 38.055-44.306 24.718-2.1306 46.359 17.467 48.344 41.872 2.1849 26.858-19.145 50.331-45.688 52.382-16.397 1.2667-32.703-5.6424-43.434-18.058" fill="none" stroke="#e6e6e6" stroke-width="3.6223"/>
    </g>
   </g>
   <path d="m131.02 346.45c-23.465-6.243-19.907-26.948-50.178-26.948-2.0778 0 4.1061 1.3184 5.5754 2.7877 3.1568 3.1568 4.4505 6.4394 10.222 8.3631 15.068 5.0225 24.9 11.056 38.098 17.655" fill="#fff"/>
  </g>
  <g transform="matrix(-1,0,0,-1,953.88,726.66)">
   <g transform="matrix(-.38776 0 0 -.38776 1026.8 385.4)">
    <path d="m1100.9-203.98-257.97 758.92h509.95l-73.125-220.25a26.997 32.997 0 0 1 -16.865 7.2695 26.997 32.997 0 0 1 -26.998 -32.996 26.997 32.997 0 0 1 11.822 -27.25 26.997 32.997 0 0 1 -23.82 -32.744 26.997 32.997 0 0 1 11.773 -27.207 26.997 32.997 0 0 1 -2.7754 0.21094 26.997 32.997 0 0 1 -26.996 -32.996 26.997 32.997 0 0 1 15.568 -29.852l-120.56-363.11z" fill="#fc0" stroke="#f60" stroke-width="1px"/>
    <path d="m1097.9-149.98c3.5291 33.162-13.74 28.738-29.997 44.995-13.556 13.556 17.259 39.735 5.9994 50.995-29.69 29.69-6.6526 45.649-41.996 80.991-3.4353 3.4353 14.03 73.977 5.9993 77.992-6.4796 3.2398-3.0194 10.509-5.9993 11.999-37.17 18.585-20.246 74.24-65.993 119.99-12.787 12.787-0.36524 51.36-11.999 62.993-13.85 13.85 1.8753 36.37-2.9997 50.995-2.1484 6.4451-8.1013 8.1013-11.999 11.999-19.495 19.495 20.346 38.996-11.999 38.996-35.634 0-20.998 58.473-20.998 83.991 0 7.3943-24.548 35.446-23.997 35.996 7.5878 7.5878 70.401 10.764 80.991 8.999 4.9891-0.83152 48.081-24.083 53.994-29.997 0.5616-0.56153 56.818 11.999 62.993 11.999 14.831 0-7.5263-1.4728 0-8.999 3.8542-3.8542 11.506 5.6819 14.998 5.9994 10.008 0.90977 19.989 2.0899 29.997 2.9997 0.5982 0.0544 8.9991-0.0435 8.9991 0 0 8.5477 15.374 11.124 26.997 14.998 40.053 13.351 37.816-47.995 74.992-47.995 2.2183 0 26.099 1.7955 26.997 0 5.9845-11.969 33.549-57.666 23.997-71.992-12.318-18.477-46.966-61.965-59.994-74.992-19.22-19.22 5.9994-47.153 5.9994-47.995 0-9.5689-26.997-6.8966-26.997-23.997 0-11.815 4.5897-21.178 8.9991-29.997 0.8943-1.7887 7.9991 0 5.9993 0-6.5455 0-43.468-12.054-35.996-26.997 6.0081-12.016 21.554-62.437 17.998-65.993-14.496-14.496-26.418-29.418-35.996-38.996-10.999-10.999 10.999-54.994 0-65.993-12.984-12.984-17.803-32.802-29.997-44.995-12.499-12.499 12.499-62.493 0-74.992-13.81-13.81-33.1-39.409-38.996-62.993z" fill="#ffe680" stroke="#f60" stroke-width="1px"/>
    <ellipse cx="1085.9" cy="65.993" rx="50.995" ry="56.994" d="m 1136.895,65.992996 c 0,31.476917 -22.8312,56.994004 -50.995,56.994004 -28.1637,0 -50.995,-25.517087 -50.995,-56.994004 0,-31.476917 22.8313,-56.9939993 50.995,-56.9939993 28.1638,0 50.995,25.5170823 50.995,56.9939993 z" fill="#f00" stroke="#f60" stroke-linecap="round" stroke-width="10"/>
    <ellipse cx="1159.4" cy="433.45" rx="61.493" ry="64.493" d="m 1220.893,433.45001 c 0,35.6185 -27.5313,64.493 -61.493,64.493 -33.9616,0 -61.493,-28.8745 -61.493,-64.493 0,-35.6185 27.5314,-64.49299 61.493,-64.49299 33.9617,0 61.493,28.87449 61.493,64.49299 z" fill="#f00" stroke="#d45500" stroke-linecap="round" stroke-width="10"/>
    <g transform="matrix(.89383 .44841 -.44841 .89383 290.54 -470.46)">
     <ellipse cx="1003.4" cy="343.46" rx="64.493" ry="76.492" d="m 1067.893,343.45999 c 0,42.24536 -28.8745,76.492 -64.493,76.492 -35.61847,0 -64.49297,-34.24664 -64.49297,-76.492 0,-42.24536 28.8745,-76.492 64.49297,-76.492 35.6185,0 64.493,34.24664 64.493,76.492 z" fill="#f00" stroke="#d45500" stroke-linecap="round" stroke-width="10"/>
     <ellipse cx="1001.7" cy="298.5" rx="6.6309" ry="10.535" d="m 1008.3309,298.5 c 0,5.81832 -2.9687,10.535 -6.6309,10.535 -3.66213,0 -6.63089,-4.71668 -6.63089,-10.535 0,-5.81832 2.96876,-10.535 6.63089,-10.535 3.6622,0 6.6309,4.71668 6.6309,10.535 z" fill="#fff"/>
     <ellipse cx="1027.4" cy="316.06" rx="7.4597" ry="14.047" d="m 1034.8597,316.06 c 0,7.75794 -3.3398,14.047 -7.4597,14.047 -4.1199,0 -7.4597,-6.28906 -7.4597,-14.047 0,-7.75795 3.3398,-14.047 7.4597,-14.047 4.1199,0 7.4597,6.28905 7.4597,14.047 z" fill="#fff"/>
     <ellipse cx="1020.8" cy="371.08" rx="9.1175" ry="12.877" d="m 1029.9175,371.07999 c 0,7.11177 -4.0821,12.877 -9.1175,12.877 -5.0355,0 -9.1175,-5.76523 -9.1175,-12.877 0,-7.11177 4.082,-12.877 9.1175,-12.877 5.0354,0 9.1175,5.76523 9.1175,12.877 z" fill="#fff"/>
     <ellipse cx="978.53" cy="355.86" rx="6.6309" ry="16.389" d="m 985.16093,355.85999 c 0,9.05139 -2.96876,16.389 -6.6309,16.389 -3.66215,0 -6.6309,-7.33761 -6.6309,-16.389 0,-9.0514 2.96875,-16.389 6.6309,-16.389 3.66214,0 6.6309,7.3376 6.6309,16.389 z" fill="#fff"/>
    </g>
    <ellipse cx="1152.2" cy="404.19" rx="4.7363" ry="8.2308" d="m 1156.9363,404.19 c 0,4.54575 -2.1206,8.2308 -4.7363,8.2308 -2.6158,0 -4.7363,-3.68505 -4.7363,-8.2308 0,-4.54574 2.1205,-8.2308 4.7363,-8.2308 2.6157,0 4.7363,3.68506 4.7363,8.2308 z" fill="#fff"/>
    <ellipse cx="1170.5" cy="417.91" rx="5.3284" ry="10.974" d="m 1175.8284,417.91 c 0,6.06078 -2.3856,10.974 -5.3284,10.974 -2.9428,0 -5.3284,-4.91322 -5.3284,-10.974 0,-6.06077 2.3856,-10.974 5.3284,-10.974 2.9428,0 5.3284,4.91323 5.3284,10.974 z" fill="#fff"/>
    <ellipse cx="1165.8" cy="460.89" rx="6.5125" ry="10.06" d="m 1172.3125,460.89001 c 0,5.55599 -2.9157,10.06001 -6.5125,10.06001 -3.5967,0 -6.5125,-4.50402 -6.5125,-10.06001 0,-5.55598 2.9158,-10.06 6.5125,-10.06 3.5968,0 6.5125,4.50402 6.5125,10.06 z" fill="#fff"/>
    <ellipse cx="1135.6" cy="449" rx="4.7363" ry="12.804" d="m 1140.3363,449 c 0,7.07145 -2.1205,12.804 -4.7363,12.804 -2.6158,0 -4.7363,-5.73255 -4.7363,-12.804 0,-7.07145 2.1205,-12.804 4.7363,-12.804 2.6158,0 4.7363,5.73255 4.7363,12.804 z" fill="#fff"/>
    <ellipse transform="scale(-1,1)" cx="-1088.6" cy="32.228" rx="4.7363" ry="8.2308" d="m -1083.8637,32.228001 c 0,4.545745 -2.1205,8.230799 -4.7363,8.230799 -2.6158,0 -4.7363,-3.685054 -4.7363,-8.230799 0,-4.545745 2.1205,-8.2308 4.7363,-8.2308 2.6158,0 4.7363,3.685055 4.7363,8.2308 z" fill="#fff"/>
    <ellipse transform="scale(-1,1)" cx="-1070.2" cy="45.946" rx="5.3283" ry="10.974" d="m -1064.8717,45.945999 c 0,6.060773 -2.3855,10.974 -5.3283,10.974 -2.9427,0 -5.3283,-4.913227 -5.3283,-10.974 0,-6.060773 2.3856,-10.974 5.3283,-10.974 2.9428,0 5.3283,4.913227 5.3283,10.974 z" fill="#fff"/>
    <ellipse transform="scale(-1,1)" cx="-1075" cy="88.93" rx="6.5124" ry="10.06" d="m -1068.4876,88.93 c 0,5.555985 -2.9157,10.060001 -6.5124,10.060001 -3.5967,0 -6.5124,-4.504016 -6.5124,-10.060001 0,-5.555985 2.9157,-10.06 6.5124,-10.06 3.5967,0 6.5124,4.504015 6.5124,10.06 z" fill="#fff"/>
    <ellipse transform="scale(-1,1)" cx="-1105.1" cy="77.041" rx="4.7363" ry="12.804" d="m -1100.3637,77.041 c 0,7.071454 -2.1205,12.804 -4.7363,12.804 -2.6158,0 -4.7363,-5.732546 -4.7363,-12.804 0,-7.071454 2.1205,-12.804 4.7363,-12.804 2.6158,0 4.7363,5.732546 4.7363,12.804 z" fill="#fff"/>
    <ellipse transform="matrix(.89133 -.45335 .45335 .89133 0 0)" cx="915.46" cy="701.22" rx="38.996" ry="23.997" d="m 954.45602,701.21997 c 0,13.25318 -17.4591,23.997 -38.996,23.997 -21.53689,0 -38.996,-10.74382 -38.996,-23.997 0,-13.25318 17.45911,-23.997 38.996,-23.997 21.5369,0 38.996,10.74382 38.996,23.997 z" fill="#008000" stroke="#808000" stroke-linecap="round" stroke-width="10"/>
    <ellipse transform="matrix(.87697 .48054 -.48054 .87697 0 0)" cx="1081.6" cy="-82.385" rx="38.996" ry="23.997" d="m 1120.596,-82.385002 c 0,13.253177 -17.4591,23.997 -38.996,23.997 -21.5369,0 -38.996,-10.743823 -38.996,-23.997 0,-13.253177 17.4591,-23.996998 38.996,-23.996998 21.5369,0 38.996,10.743821 38.996,23.996998 z" fill="#008000" stroke="#808000" stroke-linecap="round" stroke-width="10"/>
    <path transform="matrix(1.819,0,0,1.7356,-825.52,-1130.9)" d="m1028.9 872.91c2.3629-0.0666 1.2555 3.1522 0.1106 3.9272-3.1024 2.1002-6.9108-0.69048-7.9651-3.7059-1.8858-5.3939 2.3637-10.755 7.5225-12.003 7.5708-1.8308 14.668 4.0429 16.041 11.339 1.83 9.7246-5.7221 18.607-15.156 20.079-11.871 1.8526-22.558-7.4007-24.117-18.972-1.8875-14.015 9.079-26.517 22.789-28.155 16.156-1.9296 30.481 10.757 32.192 26.605 1.9761 18.298-12.435 34.448-30.422 36.23-20.438 2.0256-38.417-14.112-40.268-34.238-2.0773-22.578 15.79-42.387 38.055-44.306 24.718-2.1306 46.359 17.467 48.344 41.872 2.1849 26.858-19.145 50.331-45.688 52.382-16.397 1.2667-32.703-5.6424-43.434-18.058" fill="none" stroke="#e6e6e6" stroke-width="3.6223"/>
    <path transform="matrix(1.819,0,0,1.7356,-765.53,-1178.9)" d="m1028.9 872.91c2.3629-0.0666 1.2555 3.1522 0.1106 3.9272-3.1024 2.1002-6.9108-0.69048-7.9651-3.7059-1.8858-5.3939 2.3637-10.755 7.5225-12.003 7.5708-1.8308 14.668 4.0429 16.041 11.339 1.83 9.7246-5.7221 18.607-15.156 20.079-11.871 1.8526-22.558-7.4007-24.117-18.972-1.8875-14.015 9.079-26.517 22.789-28.155 16.156-1.9296 30.481 10.757 32.192 26.605 1.9761 18.298-12.435 34.448-30.422 36.23-20.438 2.0256-38.417-14.112-40.268-34.238-2.0773-22.578 15.79-42.387 38.055-44.306 24.718-2.1306 46.359 17.467 48.344 41.872 2.1849 26.858-19.145 50.331-45.688 52.382-16.397 1.2667-32.703-5.6424-43.434-18.058" fill="none" stroke="#e6e6e6" stroke-width="3.6223"/>
    <path transform="matrix(1.819,0,0,1.7356,-765.53,-1259.9)" d="m1028.9 872.91c2.3629-0.0666 1.2555 3.1522 0.1106 3.9272-3.1024 2.1002-6.9108-0.69048-7.9651-3.7059-1.8858-5.3939 2.3637-10.755 7.5225-12.003 7.5708-1.8308 14.668 4.0429 16.041 11.339 1.83 9.7246-5.7221 18.607-15.156 20.079-11.871 1.8526-22.558-7.4007-24.117-18.972-1.8875-14.015 9.079-26.517 22.789-28.155 16.156-1.9296 30.481 10.757 32.192 26.605 1.9761 18.298-12.435 34.448-30.422 36.23-20.438 2.0256-38.417-14.112-40.268-34.238-2.0773-22.578 15.79-42.387 38.055-44.306 24.718-2.1306 46.359 17.467 48.344 41.872 2.1849 26.858-19.145 50.331-45.688 52.382-16.397 1.2667-32.703-5.6424-43.434-18.058" fill="none" stroke="#e6e6e6" stroke-width="3.6223"/>
    <path transform="matrix(1.819,0,0,1.7356,-771.53,-1442.9)" d="m1028.9 872.91c2.3629-0.0666 1.2555 3.1522 0.1106 3.9272-3.1024 2.1002-6.9108-0.69048-7.9651-3.7059-1.8858-5.3939 2.3637-10.755 7.5225-12.003 7.5708-1.8308 14.668 4.0429 16.041 11.339 1.83 9.7246-5.7221 18.607-15.156 20.079-11.871 1.8526-22.558-7.4007-24.117-18.972-1.8875-14.015 9.079-26.517 22.789-28.155 16.156-1.9296 30.481 10.757 32.192 26.605 1.9761 18.298-12.435 34.448-30.422 36.23-20.438 2.0256-38.417-14.112-40.268-34.238-2.0773-22.578 15.79-42.387 38.055-44.306 24.718-2.1306 46.359 17.467 48.344 41.872 2.1849 26.858-19.145 50.331-45.688 52.382-16.397 1.2667-32.703-5.6424-43.434-18.058" fill="none" stroke="#e6e6e6" stroke-width="3.6223"/>
    <path transform="matrix(1.819,0,0,1.7356,-810.52,-1352.9)" d="m1028.9 872.91c2.3629-0.0666 1.2555 3.1522 0.1106 3.9272-3.1024 2.1002-6.9108-0.69048-7.9651-3.7059-1.8858-5.3939 2.3637-10.755 7.5225-12.003 7.5708-1.8308 14.668 4.0429 16.041 11.339 1.83 9.7246-5.7221 18.607-15.156 20.079-11.871 1.8526-22.558-7.4007-24.117-18.972-1.8875-14.015 9.079-26.517 22.789-28.155 16.156-1.9296 30.481 10.757 32.192 26.605 1.9761 18.298-12.435 34.448-30.422 36.23-20.438 2.0256-38.417-14.112-40.268-34.238-2.0773-22.578 15.79-42.387 38.055-44.306 24.718-2.1306 46.359 17.467 48.344 41.872 2.1849 26.858-19.145 50.331-45.688 52.382-16.397 1.2667-32.703-5.6424-43.434-18.058" fill="none" stroke="#e6e6e6" stroke-width="3.6223"/>
    <path transform="matrix(1.819,0,0,1.7356,-627.54,-1061.9)" d="m1028.9 872.91c2.3629-0.0666 1.2555 3.1522 0.1106 3.9272-3.1024 2.1002-6.9108-0.69048-7.9651-3.7059-1.8858-5.3939 2.3637-10.755 7.5225-12.003 7.5708-1.8308 14.668 4.0429 16.041 11.339 1.83 9.7246-5.7221 18.607-15.156 20.079-11.871 1.8526-22.558-7.4007-24.117-18.972-1.8875-14.015 9.079-26.517 22.789-28.155 16.156-1.9296 30.481 10.757 32.192 26.605 1.9761 18.298-12.435 34.448-30.422 36.23-20.438 2.0256-38.417-14.112-40.268-34.238-2.0773-22.578 15.79-42.387 38.055-44.306 24.718-2.1306 46.359 17.467 48.344 41.872 2.1849 26.858-19.145 50.331-45.688 52.382-16.397 1.2667-32.703-5.6424-43.434-18.058" fill="none" stroke="#e6e6e6" stroke-width="3.6223"/>
    <path transform="matrix(1.3067,0,0,1.2467,-239.61,-1128.2)" d="m1028.9 872.91c2.3629-0.0666 1.2555 3.1522 0.1106 3.9272-3.1024 2.1002-6.9108-0.69048-7.9651-3.7059-1.8858-5.3939 2.3637-10.755 7.5225-12.003 7.5708-1.8308 14.668 4.0429 16.041 11.339 1.83 9.7246-5.7221 18.607-15.156 20.079-11.871 1.8526-22.558-7.4007-24.117-18.972-1.8875-14.015 9.079-26.517 22.789-28.155 16.156-1.9296 30.481 10.757 32.192 26.605 1.9761 18.298-12.435 34.448-30.422 36.23-20.438 2.0256-38.417-14.112-40.268-34.238-2.0773-22.578 15.79-42.387 38.055-44.306 24.718-2.1306 46.359 17.467 48.344 41.872 2.1849 26.858-19.145 50.331-45.688 52.382-16.397 1.2667-32.703-5.6424-43.434-18.058" fill="none" stroke="#e6e6e6" stroke-width="3.6223"/>
   </g>
   <path d="m602.13 464.58-3.4221-292.33 100.39-0.12553z" fill="#ff7f2a" opacity=".307"/>
   <g transform="matrix(-1,0,0,-1,1169.6,607.82)">
    <path d="m557.54 419.86c-5.549-2.9058-12.377-1.8585-18.585-1.8585h-9.2923c-0.97195 0-29.406-0.29972-21.372 3.7169 4.3852 2.1926 20.99-4.0991 22.302-2.7877 0.58252 0.58252 27.601 8.9154 28.806 6.5046 0.72614-1.4523-1.8585-2.4582-1.8585-5.5754z" fill="#fff"/>
   </g>
  </g>
 </g>
</svg>
